<?xml version="1.0" encoding="utf-8"?>
<!-- Generator: Adobe Illustrator 25.3.1, SVG Export Plug-In . SVG Version: 6.00 Build 0)  -->
<svg version="1.1" id="Layer_1" xmlns="http://www.w3.org/2000/svg" xmlns:xlink="http://www.w3.org/1999/xlink" x="0px" y="0px"
	 viewBox="0 0 240 234" style="enable-background:new 0 0 240 234;" xml:space="preserve">
<style type="text/css">
	.st0{fill:#FFFFFF;}
</style>
<g>
	<path class="st0" d="M96.8,81.1c-3.7-1.5-7.7-2.1-11.8-2c-2.6,0-4.9,0-6.8,0.1c-2,0.1-3.4,0.1-4.1,0.2v33.3
		c1.4,0.1,2.7,0.2,3.9,0.2h5.3c3.9,0.1,7.8-0.5,11.5-1.6c3.2-0.9,6-2.8,8.2-5.3c2.1-2.5,3.1-5.9,3.1-10.3c0.1-3.1-0.7-6.2-2.3-8.9
		C102.1,84.2,99.7,82.2,96.8,81.1z"/>
	<path class="st0" d="M197.5,0h-155C19,0,0,19,0,42.5v149C0,215,19,234,42.5,234h155c23.5,0,42.5-19,42.5-42.5v-149
		C240,19,221,0,197.5,0z M122.1,116.4c-4,5.6-9.6,9.8-16.1,12.2c-7.2,2.6-14.9,3.9-22.5,3.8c-2.4,0-4,0-5-0.1
		c-1-0.1-2.4-0.1-4.3-0.1v31.7c0.1,0.7-0.4,1.3-1.1,1.4c-0.1,0-0.2,0-0.4,0H53c-0.8,0-1.1-0.4-1.1-1.3V61.2c0-0.8,0.3-1.1,1-1.1
		c1.7,0,3.8,0,6.1-0.1c2.4-0.1,4.9-0.1,7.6-0.2c2.7-0.1,5.6-0.1,8.7-0.2c3.1-0.1,6.1-0.1,9.1-0.1c8.2,0,15,1,20.6,3.1
		c5,1.7,9.6,4.5,13.4,8.2c3.2,3.2,5.7,7.1,7.3,11.4c1.5,4.2,2.3,8.5,2.3,13C128.1,103.8,126.1,110.9,122.1,116.4z M188.6,102.9
		c0.1,0.5-0.3,1-0.8,1.1h-15.3v34.5c0,3.6,0.6,6.3,1.9,7.8c1.2,1.6,3.5,2.3,6.8,2.3c1,0,1.9,0,2.7-0.1c0.9-0.1,1.7-0.1,2.6-0.2
		c0.3-0.1,0.6-0.1,0.9,0.1c0.3,0.2,0.4,0.5,0.4,1v13.2c0,1.2-0.4,1.9-1.3,2.1c-2.1,0.7-4.3,1.2-6.4,1.6c-2.6,0.5-5.1,0.7-7.7,0.6
		c-7,0-12.5-1.8-16.4-5.5c-4-3.6-6-9.5-6-17.5V104h-9.5c-0.9,0-1.3-0.5-1.3-1.4V86.7c0-0.9,0.5-1.3,1.4-1.3h9.5
		c0.1-1.8,0.2-3.9,0.4-6.4c0.2-2.4,0.4-4.8,0.6-7.2c0.3-2.4,0.5-4.4,0.7-5.9c0.1-0.3,0.3-0.6,0.5-0.9c0.2-0.3,0.5-0.5,0.8-0.6
		l19.2-2.4c0.4-0.1,0.7-0.1,0.9,0c0.2,0.1,0.2,0.4,0.2,0.9c-0.2,2.5-0.4,5.8-0.5,10.1c-0.1,4.2-0.2,8.3-0.3,12.3h15
		c0.6,0,1,0.4,1,1.3V102.9z"/>
</g>
</svg>
