<?xml version="1.0" encoding="utf-8"?>
<!-- Generator: Adobe Illustrator 25.3.1, SVG Export Plug-In . SVG Version: 6.00 Build 0)  -->
<svg version="1.1" id="Layer_1" xmlns="http://www.w3.org/2000/svg" xmlns:xlink="http://www.w3.org/1999/xlink" x="0px" y="0px"
	 viewBox="0 0 240 234" style="enable-background:new 0 0 240 234;" xml:space="preserve">
<style type="text/css">
	.st0{fill:#FFFFFF;}
</style>
<g>
	<path class="st0" d="M170.8,101.6c-5.5-0.3-10.7,2.6-13.3,7.6c-1.2,2.3-1.9,4.7-2.2,7.2h21.1c2.6,0,4.5,0,5.7-0.1
		c0.8-0.1,1.6-0.3,2.3-0.8v-1c0-1.3-0.2-2.5-0.6-3.7C182,105.2,176.7,101.4,170.8,101.6z"/>
	<path class="st0" d="M85.4,104.3c-1-3.1-1.9-6.1-2.9-9.2c-1-3.1-1.9-6-2.7-8.9c-0.8-2.8-1.5-5.4-2.2-7.8h-0.2
		c-0.9,4.3-2,8.6-3.4,12.9c-1.5,4.8-3,9.8-4.6,14.8c-1.3,5.1-2.9,9.8-4.4,14h25.4c-0.6-2.1-1.4-4.6-2.3-7.2
		C87.2,110.2,86.3,107.3,85.4,104.3z"/>
	<path class="st0" d="M197.5,0h-155C19,0,0,19,0,42.5v149C0,215,19,234,42.5,234h155c23.5,0,42.5-19,42.5-42.5v-149
		C240,19,221,0,197.5,0z M127.1,164.6h-20.9c-0.7,0.1-1.4-0.4-1.6-1.1l-8.2-24v0.5H59.2l-7.6,23.6c-0.2,0.9-1,1.5-1.9,1.4H30.9
		c-1.1,0-1.4-0.6-1.1-1.8L62,70.9c0.3-1,0.6-1.9,1-3.1c0.4-2.1,0.6-4.3,0.6-6.5c-0.1-0.5,0.3-1,0.8-1.1h0.3h25.6
		c0.7,0,1.2,0.3,1.3,0.8l36.5,102C128.4,164.1,128.1,164.6,127.1,164.6z M205.2,125.4c-0.2,1.9-0.3,3.3-0.4,4.2
		c-0.1,0.7-0.7,1.3-1.4,1.3c-0.6,0-1.7,0.1-3.3,0.2c-1.6,0.2-3.5,0.3-5.8,0.3c-2.3,0-4.7-0.4-7.3-0.4h-31.7c0.4,3.1,1.4,6.2,3.1,8.9
		c1.8,2.7,4.3,4.8,7.3,6c4,1.7,8.4,2.6,12.8,2.5c3.5-0.1,7-0.4,10.4-1.1c3.1-0.4,6.1-1.2,8.9-2.3c0.5-0.4,0.8-0.2,0.8,0.8v15.3
		c0,0.4-0.1,0.8-0.2,1.2c-0.2,0.3-0.4,0.5-0.7,0.7c-3.2,1.4-6.5,2.4-10,3c-4.7,0.9-9.4,1.3-14.2,1.2c-7.6,0-14-1.2-19.2-3.5
		c-4.9-2.1-9.2-5.4-12.6-9.5c-3.2-3.9-5.5-8.3-6.9-13.1c-1.4-4.7-2.1-9.6-2.1-14.6c0-5.4,0.8-10.7,2.5-15.9c1.6-5,4.1-9.6,7.5-13.7
		c3.3-4,7.4-7.2,12.1-9.5s10.3-3.1,16.7-3.1c5.3-0.1,10.6,0.9,15.5,3.1c4.1,1.8,7.7,4.5,10.5,8c2.6,3.4,4.7,7.2,6,11.4
		c1.3,4,1.9,8.1,1.9,12.2C205.4,121.4,205.3,123.5,205.2,125.4z"/>
</g>
</svg>
