<?xml version="1.0" encoding="utf-8"?>
<!-- Generator: Adobe Illustrator 25.3.1, SVG Export Plug-In . SVG Version: 6.00 Build 0)  -->
<svg version="1.1" id="Layer_1" xmlns="http://www.w3.org/2000/svg" xmlns:xlink="http://www.w3.org/1999/xlink" x="0px" y="0px"
	 viewBox="0 0 48 48" style="enable-background:new 0 0 48 48;" xml:space="preserve">
<style type="text/css">
	.st0{fill:#FFFFFF;}
</style>
<g id="surface1">
	<path class="st0" d="M0.6,40.1v5.7c0.3,0.2,0.6,0.4,0.9,0.6C1.3,46.3,1,46.2,0.6,46v2h8.2c-0.6-0.3-1.2-0.7-1.7-1
		C4.8,45.4,2.2,43,0.6,40.1z M0.6,0v14.7c2.2-1.9,4-2.9,4.1-3c8-4.7,15.1-2.4,19.3-1c6.6,2.1,11.7,7.3,14,12.6
		c2.6,6.2,0.3,18-8.4,24c-0.4,0.3-0.8,0.5-1.1,0.7h18.9V0H0.6z M31.7,26.3c-1-4.8-6-10.5-11.5-11.8c-5.7-1.3-9.5-1.3-14,1.7
		c-1.3,0.9-3.5,2.4-5.6,4.6v7.5c2.9-6.3,9.5-11.6,17-9.7c12.6,3.2,10.6,12.1,9.1,15.7C24,40.9,14,43.7,10.9,37.5
		c-3.3-6.7,4.1-7.8,4.1-7.8s-1.9,1.9,0.5,4.4c1.7,1.7,4.9,0.2,6-2.9c1-2.7-1.1-6.3-5.7-6.7c-3.9-0.3-9.6,2.6-10.2,8.5
		c-0.6,5.6,1.9,7.9,5.6,10.3c3.6,2.5,11.3,3.4,15.7-0.9C31.6,37.6,33,32.8,31.7,26.3"/>
</g>
</svg>
