<?xml version="1.0" encoding="utf-8"?>
<!-- Generator: Adobe Illustrator 25.3.1, SVG Export Plug-In . SVG Version: 6.00 Build 0)  -->
<svg version="1.1" id="Layer_1" xmlns="http://www.w3.org/2000/svg" xmlns:xlink="http://www.w3.org/1999/xlink" x="0px" y="0px"
	 viewBox="0 0 48 48" style="enable-background:new 0 0 48 48;" xml:space="preserve">
<style type="text/css">
	.st0{fill:#FFFFFF;}
</style>
<g>
	<path class="st0" d="M33.7,2.7h13.8l-18.4,35c0,0-3.1-8.9-4.4-12.3"/>
	<g>
		<path class="st0" d="M38.3,46c2.4-3.5,7.2-15.8,9.3-30.2V46H38.3z"/>
	</g>
	<path class="st0" d="M20.2,37.7L1,3.1c3.9-0.5,10.7-1,12.8-1.2l14.3,35.8H20.2z"/>
	<path class="st0" d="M1.2,46.4c2-2.7,7.7-11.1,10.5-20.4v18.7C11.7,44.7,10.9,46.3,1.2,46.4z"/>
	<path class="st0" d="M0.7,4.8C2.4,8.1,6.1,15.3,11,23.9C8.4,31.6,5.5,37.1,0.7,45.1V4.8z"/>
	<path class="st0" d="M37.7,23.7c3.5-6.1,7.9-14.8,9.8-18.7c-0.6,15.8-7.4,34.6-9.8,39.8V23.7z"/>
</g>
</svg>
