<?xml version="1.0" encoding="utf-8"?>
<!-- Generator: Adobe Illustrator 25.3.1, SVG Export Plug-In . SVG Version: 6.00 Build 0)  -->
<svg version="1.1" id="Layer_1" xmlns="http://www.w3.org/2000/svg" xmlns:xlink="http://www.w3.org/1999/xlink" x="0px" y="0px"
	 viewBox="0 0 48 48" style="enable-background:new 0 0 48 48;" xml:space="preserve">
<style type="text/css">
	.st0{fill:#FFFFFF;}
</style>
<path class="st0" d="M24,0C10.8,0,0,10.8,0,24s10.8,24,24,24s24-10.8,24-24S37.2,0,24,0z M24,45.6C12.1,45.6,2.4,35.9,2.4,24
	S12.1,2.4,24,2.4S45.6,12.1,45.6,24S35.9,45.6,24,45.6z"/>
<path class="st0" d="M42.3,18.1c-1.8-5.8-6.3-10.3-12-12.3c-0.4-0.1-0.8,0.1-0.8,0.5c-0.1,1.4-0.3,4.6-0.3,6c0,0.4-0.4,0.8-0.8,0.8
	h-3.6c-0.6,0-1.2-0.3-1.7-0.7l-5.7-5.7C17,6.5,16.4,6.4,16,6.6c-4.7,2.2-8.3,6.1-10.1,11c-0.3,0.8,0.3,1.6,1.1,1.6h12.4
	c1,0,2,0.4,2.6,1.2l5.2,5.6c0.2,0.2,0.3,0.5,0.3,0.8v14.5c0,0.8,0.8,1.4,1.5,1.2c5.2-1.4,9.4-5,11.9-9.6c0.2-0.4,0.1-1-0.2-1.4
	l-5.4-5.8c-0.4-0.4-0.6-1-0.6-1.6v-3.7c0-0.7,0.5-1.2,1.2-1.2h5.4C42,19.2,42.4,18.7,42.3,18.1z M31.8,22.3c-1.1,1-3.4,0.4-5-1.4
	c-1.6-1.7-2.1-3.9-0.9-4.9s3.4-0.4,5,1.4C32.5,19.2,32.9,21.4,31.8,22.3z"/>
</svg>
