<?xml version="1.0" encoding="utf-8"?>
<!-- Generator: Adobe Illustrator 25.3.1, SVG Export Plug-In . SVG Version: 6.00 Build 0)  -->
<svg version="1.1" id="Layer_1" xmlns="http://www.w3.org/2000/svg" xmlns:xlink="http://www.w3.org/1999/xlink" x="0px" y="0px"
	 viewBox="0 0 240 234" style="enable-background:new 0 0 240 234;" xml:space="preserve">
<style type="text/css">
	.st0{fill:#FFFFFF;}
</style>
<g>
	<path class="st0" d="M98.5,81.2c-3.7-1.5-7.7-2.1-11.8-2c-2.6,0-4.9,0-6.8,0.1c-2-0.1-3.4,0-4.1,0.1V113c1.4,0.1,2.7,0.2,3.9,0.2
		H85c3.9,0,7.8-0.6,11.5-1.8c3.2-0.9,6-2.8,8.2-5.3c2.1-2.5,3.1-5.9,3.1-10.3c0.1-3.1-0.7-6.2-2.3-8.9
		C103.8,84.3,101.4,82.3,98.5,81.2z"/>
	<path class="st0" d="M197.5,0h-155C19,0,0,19,0,42.5v149C0,215,19,234,42.5,234h155c23.5,0,42.5-19,42.5-42.5v-149
		C240,19,221,0,197.5,0z M123.6,116.5c-4,5.6-9.6,9.8-16.1,12.2c-6.8,2.5-14.3,3.4-22.5,3.4c-2.4,0-4,0-5-0.1
		c-1-0.1-2.4-0.1-4.3-0.1V164c0.1,0.7-0.4,1.3-1.1,1.4c-0.1,0-0.2,0-0.4,0h-19c-0.8,0-1.2-0.4-1.2-1.3V61.2c0-0.7,0.3-1.1,1-1.1
		c1.7,0,3.3,0,5.6-0.1c2.4-0.1,4.9-0.1,7.6-0.2c2.7-0.1,5.6-0.1,8.7-0.2c3.1-0.1,6.1-0.1,9.1-0.1c8.2,0,15,1,20.6,3.1
		c5,1.7,9.6,4.5,13.4,8.2c3.2,3.2,5.7,7.1,7.3,11.4c1.5,4.2,2.3,8.5,2.3,13C129.6,103.8,127.6,110.9,123.6,116.5z M194.5,155.4
		c-2.8,4-6.7,7.1-11.2,8.9c-4.9,2.1-10.9,3.2-18.1,3.2c-4.6,0-9.1-0.4-13.6-1.3c-3.5-0.6-7-1.7-10.2-3.2c-0.7-0.4-1.2-1.1-1.1-1.9
		v-17.4c0-0.3,0.1-0.7,0.4-0.9c0.3-0.2,0.6-0.1,0.9,0.1c3.9,2.3,8,3.9,12.4,4.9c3.8,1,7.8,1.5,11.8,1.5c3.8,0,6.5-0.5,8.3-1.4
		c1.6-0.7,2.7-2.4,2.7-4.2c0-1.4-0.8-2.7-2.4-4s-4.9-2.8-9.8-4.7c-5.1-1.8-9.8-4.2-14.2-7.2c-3.1-2.2-5.7-5.1-7.6-8.5
		c-1.6-3.2-2.4-6.7-2.3-10.2c0-4.3,1.2-8.4,3.4-12.1c2.5-4,6.2-7.2,10.5-9.2c4.7-2.4,10.6-3.5,17.7-3.5c4.1,0,8.3,0.3,12.4,0.9
		c3,0.4,5.9,1.2,8.6,2.3c0.4,0.1,0.8,0.5,1,0.9c0.1,0.4,0.2,0.8,0.2,1.2v16.3c0,0.4-0.2,0.8-0.5,1c-0.9,0.2-1.4,0.2-1.8,0
		c-3-1.6-6.2-2.7-9.6-3.4c-3.7-0.8-7.4-1.3-11.2-1.3c-2-0.1-4.1,0.2-6,0.7c-1.3,0.3-2.4,1-3.1,2c-0.5,0.8-0.8,1.8-0.8,2.7
		c0,0.9,0.4,1.8,1,2.6c0.9,1.1,2.1,2,3.4,2.7c2.3,1.2,4.7,2.3,7.1,3.3c5.4,1.8,10.6,4.3,15.4,7.3c3.3,2.1,6,4.9,7.9,8.3
		c1.6,3.2,2.4,6.7,2.3,10.3C198.5,146.8,197.1,151.5,194.5,155.4z"/>
</g>
</svg>
