<svg id="Capa_1" data-name="Capa 1" xmlns="http://www.w3.org/2000/svg" viewBox="0 0 606.88 605.44"><defs><style>.cls-1{fill:#fff;}</style></defs><path class="cls-1" d="M58.64,280.15H221.29A58.2,58.2,0,0,0,279.43,222V59.36A58.2,58.2,0,0,0,221.29,1.22H58.64A58.2,58.2,0,0,0,.5,59.36V222A58.2,58.2,0,0,0,58.64,280.15Z" transform="translate(0 -0.72)"/><path class="cls-1" d="M548.24,1.22H385.58a58.21,58.21,0,0,0-58.14,58.14V222a58.21,58.21,0,0,0,58.14,58.14H548.24A58.2,58.2,0,0,0,606.38,222V59.36A58.2,58.2,0,0,0,548.24,1.22Z" transform="translate(0 -0.72)"/><path class="cls-1" d="M548.24,280.65H385.58A58.71,58.71,0,0,1,326.94,222V59.36A58.71,58.71,0,0,1,385.58.72H548.24a58.71,58.71,0,0,1,58.64,58.64V222A58.71,58.71,0,0,1,548.24,280.65ZM385.58,1.72a57.71,57.71,0,0,0-57.64,57.64V222a57.7,57.7,0,0,0,57.64,57.64H548.24A57.7,57.7,0,0,0,605.88,222V59.36A57.71,57.71,0,0,0,548.24,1.72ZM548.24,237.81" transform="translate(0 -0.72)"/><path class="cls-1" d="M58.64,605.66H221.29a58.2,58.2,0,0,0,58.14-58.14V384.86a58.21,58.21,0,0,0-58.14-58.14H58.64A58.21,58.21,0,0,0,.5,384.86V547.52A58.2,58.2,0,0,0,58.64,605.66Z" transform="translate(0 -0.72)"/><path class="cls-1" d="M221.29,606.16H58.64A58.71,58.71,0,0,1,0,547.52V384.86a58.71,58.71,0,0,1,58.64-58.64H221.29a58.71,58.71,0,0,1,58.64,58.64V547.52A58.71,58.71,0,0,1,221.29,606.16ZM58.64,327.22A57.71,57.71,0,0,0,1,384.86V547.52a57.71,57.71,0,0,0,57.64,57.64H221.29a57.7,57.7,0,0,0,57.64-57.64V384.86a57.7,57.7,0,0,0-57.64-57.64Z" transform="translate(0 -0.72)"/><path class="cls-1" d="M548.24,326.72H385.58a58.22,58.22,0,0,0-58.14,58.14V547.52a58.21,58.21,0,0,0,58.14,58.14H548.24a58.2,58.2,0,0,0,58.14-58.14V384.86A58.21,58.21,0,0,0,548.24,326.72Z" transform="translate(0 -0.72)"/><path class="cls-1" d="M548.24,606.16H385.58a58.71,58.71,0,0,1-58.64-58.64V384.86a58.71,58.71,0,0,1,58.64-58.64H548.24a58.71,58.71,0,0,1,58.64,58.64V547.52A58.71,58.71,0,0,1,548.24,606.16ZM385.58,327.22a57.71,57.71,0,0,0-57.64,57.64V547.52a57.71,57.71,0,0,0,57.64,57.64H548.24a57.71,57.71,0,0,0,57.64-57.64V384.86a57.71,57.71,0,0,0-57.64-57.64Z" transform="translate(0 -0.72)"/></svg>